<svg width="200" height="40" viewBox="0 0 200 40" fill="none" xmlns="http://www.w3.org/2000/svg">
<path fill-rule="evenodd" clip-rule="evenodd" d="M86.5182 36.5514L94.4839 13.2372L99.3382 27.4425L102.06 19.166L96.9853 3.78191H92.1684L84.2027 27.9302L76.4677 3.87425H70.3071L81.609 36.5514H86.5182Z" fill="#202020"/>
<path fill-rule="evenodd" clip-rule="evenodd" d="M61.6926 20.1429C61.6926 21.7199 61.4216 23.209 60.8824 24.6158C60.3417 26.0212 59.5934 27.2419 58.6361 28.2779C57.6788 29.3124 56.5283 30.132 55.186 30.7351C53.8423 31.3368 52.3674 31.6384 50.7627 31.6384C49.158 31.6384 47.6759 31.3296 46.3163 30.7106C44.9582 30.093 43.7933 29.2576 42.8186 28.2072C41.8469 27.1568 41.09 25.9274 40.5493 24.522C40.0087 23.1167 39.739 21.6262 39.739 20.0491C39.739 18.472 40.0087 16.9829 40.5493 15.5761C41.09 14.1693 41.8382 12.9486 42.7956 11.914C43.7529 10.8795 44.9034 10.0599 46.2457 9.4568C47.588 8.85367 49.0643 8.5521 50.669 8.5521C52.2736 8.5521 53.7558 8.86232 55.1153 9.47988C56.4735 10.0974 57.6399 10.9314 58.6116 11.9833C59.5848 13.0337 60.3403 14.2631 60.8809 15.6685C61.4216 17.0738 61.6912 18.5658 61.6912 20.1414M62.895 31.8923C64.4074 30.3629 65.581 28.5795 66.4158 26.5392C67.2491 24.499 67.6658 22.3375 67.6658 20.0491C67.6658 17.7606 67.2491 15.5992 66.4158 13.5604C65.5825 11.5201 64.4233 9.74393 62.9426 8.23034C61.4605 6.7153 59.6843 5.51914 57.6153 4.63753C55.5464 3.75737 53.2612 3.31729 50.7612 3.31729C48.2612 3.31729 45.9761 3.76603 43.9072 4.66062C41.8382 5.55666 40.0476 6.77013 38.5352 8.2996C37.0228 9.82906 35.8492 11.6139 35.0144 13.6542C34.1796 15.693 33.7644 17.8559 33.7644 20.1429C33.7644 22.4298 34.1811 24.5927 35.0144 26.633C35.8478 28.6718 37.0055 30.4494 38.4876 31.963C39.9697 33.4781 41.7445 34.6742 43.8134 35.5558C45.8824 36.4374 48.1675 36.8775 50.6675 36.8775C53.1675 36.8775 55.4542 36.4302 57.5216 35.5342C59.5905 34.6382 61.3812 33.4247 62.8936 31.8952L62.895 31.8923Z" fill="#202020"/>
<path fill-rule="evenodd" clip-rule="evenodd" d="M26.8627 36.3206V3.87424H21.2125V17.3624H5.65023V3.87424H0V36.3206H5.65023V22.6463H21.2125V36.3206H26.8627Z" fill="#202020"/>
<path fill-rule="evenodd" clip-rule="evenodd" d="M114.723 1H120.617L107.5 39.3333H102.116L114.723 1Z" fill="#202020"/>
<path fill-rule="evenodd" clip-rule="evenodd" d="M139.294 30.6183C138.26 31.3599 136.863 31.7307 135.102 31.7307C133.065 31.7307 131.243 31.3671 129.637 30.6413C128.032 29.9156 126.442 28.8724 124.867 27.5132L121.439 31.5922C123.384 33.354 125.499 34.6584 127.784 35.5082C130.069 36.3581 132.463 36.7823 134.963 36.7823C136.661 36.7823 138.219 36.5659 139.64 36.133C141.052 35.7001 142.272 35.0667 143.276 34.2327C144.286 33.3987 145.074 32.3786 145.644 31.1723C146.208 29.9675 146.494 28.5924 146.494 27.0471C146.494 25.6879 146.27 24.5047 145.822 23.5019C145.373 22.4977 144.71 21.6161 143.845 20.86C142.982 20.1025 141.884 19.4604 140.572 18.9366C139.26 18.4114 137.748 17.9309 136.05 17.4995C134.497 17.1287 133.224 16.7737 132.213 16.4332C131.21 16.0941 130.422 15.7233 129.843 15.3207C129.272 14.9196 128.878 14.4867 128.662 14.0221C128.446 13.5589 128.338 13.002 128.338 12.3541C128.338 11.2734 128.8 10.3543 129.728 9.59532C130.655 8.83924 131.951 8.45976 133.619 8.45976C135.101 8.45976 136.567 8.74545 138.019 9.31684C139.469 9.88822 140.936 10.715 142.418 11.7957L145.476 7.48581C143.809 6.1569 142.026 5.14543 140.127 4.44996C138.228 3.75449 136.09 3.40675 133.713 3.40675C132.106 3.40675 130.626 3.63184 129.273 4.07914C127.915 4.52788 126.756 5.16852 125.792 6.00251C124.827 6.8365 124.07 7.83354 123.514 8.99219C122.966 10.1508 122.687 11.4408 122.687 12.862C122.687 14.3771 122.927 15.6598 123.405 16.7102C123.884 17.7606 124.586 18.6567 125.497 19.3983C126.409 20.14 127.543 20.7575 128.886 21.2524C130.236 21.7474 131.773 22.1947 133.509 22.5972C135.023 22.968 136.25 23.323 137.199 23.6635C138.14 24.004 138.881 24.3676 139.429 24.7529C139.97 25.1382 140.34 25.5638 140.541 26.027C140.741 26.4901 140.842 27.0154 140.842 27.6026C140.842 28.8695 140.324 29.8737 139.289 30.6154M184.425 13.5575C183.591 11.5172 182.434 9.74105 180.952 8.22745C179.469 6.71242 177.695 5.51626 175.626 4.63465C173.557 3.75449 171.272 3.3144 168.77 3.3144C166.269 3.3144 163.984 3.76314 161.915 4.65774C159.847 5.55377 158.055 6.76725 156.543 8.29671C155.03 9.82618 153.857 11.611 153.023 13.6513C152.19 15.6901 151.773 17.853 151.773 20.14C151.773 22.427 152.19 24.5899 153.023 26.6301C153.857 28.6689 155.016 30.4466 156.498 31.9602C157.98 33.4752 159.755 34.6713 161.824 35.553C163.893 36.4346 166.178 36.8746 168.679 36.8746C171.181 36.8746 173.465 36.4273 175.535 35.5313C177.602 34.6353 179.394 33.4218 180.907 31.8923C182.421 30.3629 183.593 28.5795 184.428 26.5392C185.261 24.499 185.679 22.3375 185.679 20.0491C185.679 17.7606 185.262 15.5992 184.428 13.5604L184.425 13.5575ZM178.89 24.6129C178.349 26.0183 177.601 27.239 176.644 28.275C175.686 29.3096 174.536 30.1291 173.193 30.7322C171.85 31.3339 170.376 31.6355 168.77 31.6355C167.164 31.6355 165.683 31.3267 164.324 30.7077C162.966 30.0902 161.799 29.2547 160.826 28.2043C159.854 27.1539 159.097 25.9245 158.557 24.5192C158.016 23.1123 157.747 21.6233 157.747 20.0462C157.747 18.4691 158.016 16.98 158.557 15.5732C159.097 14.1664 159.846 12.9457 160.803 11.9112C161.76 10.8766 162.911 10.057 164.253 9.45391C165.595 8.85078 167.07 8.54922 168.676 8.54922C170.283 8.54922 171.765 8.85944 173.123 9.477C174.481 10.0946 175.647 10.9285 176.619 11.9804C177.592 13.0308 178.349 14.2602 178.888 15.6656C179.429 17.0709 179.699 18.5629 179.699 20.1385C179.699 21.7142 179.429 23.2061 178.888 24.6129H178.89Z" fill="url(#paint0_linear_392_795)"/>
<path d="M193.296 8.42945H192.287V4.87994H190.96V3.98535H194.622V4.87994H193.296V8.42945ZM197.823 7.37614H197.736L196.511 5.42824V8.42945H195.559V3.98535H196.626L197.794 5.86111L198.962 3.98535H200V8.42945H199.048V5.42824L197.823 7.37614Z" fill="#202020"/>
<defs>
<linearGradient id="paint0_linear_392_795" x1="0.00448863" y1="20.1691" x2="200.004" y2="20.1691" gradientUnits="userSpaceOnUse">
<stop stop-color="#3DA9FD"/>
<stop offset="0.57" stop-color="#5D73E5"/>
<stop offset="1" stop-color="#6E56CD"/>
</linearGradient>
</defs>
</svg>
