<?xml version="1.0" encoding="utf-8"?>
<!-- Generator: Adobe Illustrator 24.3.0, SVG Export Plug-In . SVG Version: 6.00 Build 0)  -->
<svg version="1.1" id="Layer_1" xmlns="http://www.w3.org/2000/svg" xmlns:xlink="http://www.w3.org/1999/xlink" x="0px" y="0px"
	 viewBox="0 0 710.31 229.1" style="enable-background:new 0 0 710.31 229.1;" xml:space="preserve">
<style type="text/css">
	.st0{fill:#FFFFFF;}
</style>
<g>
	<g>
		<path class="st0" d="M679.28,210.75v-10.18h-3.63v-2.07h9.73v2.07h-3.63v10.18H679.28z"/>
		<path class="st0" d="M686.94,210.75V198.5h3.7l2.22,8.35l2.2-8.35h3.71v12.25h-2.3v-9.64l-2.43,9.64h-2.38l-2.42-9.64v9.64H686.94
			z"/>
	</g>
</g>
<path class="st0" d="M41.11,175.67c-7.74,2.77-3.2-13.29-10.71-20.62c-5.15-6.74-14.28-16.46-16.26-19.04s-5.35-8.13-1.39-9.72
	c9.8-2.66,17.62-8.89,27.96-4.36c8.02,5.61,36.18,11.99,44.22,11.7c-6.78,2.29-29.71,8.82-39.07,3.57
	c-8.26-5.35-30.22-9.39-18.24,4.76C34.96,154.11,39.68,160.6,41.11,175.67z"/>
<path class="st0" d="M78.4,148.31c-8.83-3.31,25.07-13.73,26.18-15.27c67.42-28.63,254.08-59.76,336.92-57.9
	c0,0-21.62-33.12-23.4-36.89c-1.78-3.77-5.55-16.86-11.9-17.45c-25.52-5.13-41.6,4.75-59.89,18.44
	c18.29,1.33,58.27-14.75,62.07,19.63c-55.9-12.41-157.63,0.96-210.8,9.52c0,0-3.37-2.97,2.78-4.16
	c35.82-9.07,90.03-15.11,124.14-24.78c20.98-12.39,30.03-29.52,53.94-29.75c17.61,2.77,47.13-3.91,51.96,14.48
	c1.39,3.77,2.78,10.71,6.35,10.91s31.73,3.57,44.62,14.08c-0.14,4.02-43.24,1.02-40.06,1.59c0,0,8.73,17.05,9.92,19.04
	s0.99,4.36,11.5,4.76c40.24,0.59,69.77,3.35,114.82,13.68c34.85,11.29,109.64,25.53,101.19,70.24
	c-0.78,22.65-20.17,61.13-45.27,63.02C735.14,96.12,448.13,93.46,380.02,93.57C279.8,97.78,168,107.79,78.4,148.31z"/>
</svg>
